<?xml version="1.0" encoding="UTF-8"?>
<svg version="1.1" xmlns="http://www.w3.org/2000/svg" width="144" height="144">
<path d="M0 0 C47.52 0 95.04 0 144 0 C144 47.52 144 95.04 144 144 C96.48 144 48.96 144 0 144 C0 96.48 0 48.96 0 0 Z " fill="#00050C" transform="translate(0,0)"/>
<path d="M0 0 C4.87773605 0.45374289 7.52177888 1.52177888 11 5 C14.55462421 9.95108372 14.5033678 15.17666379 14.7890625 21.07421875 C14.88329717 24.06187448 14.88329717 24.06187448 16 27 C16.94528201 36.1738844 15.38675772 44.04516629 10.15234375 51.703125 C3.91565207 59.26412326 -3.09732632 64.13734699 -12.90234375 65.5703125 C-21.96354029 66.1774333 -29.55430229 64.38483495 -37 59 C-43.85511812 52.97922191 -48.34937654 46.41044769 -49.4453125 37.296875 C-50.07713538 27.05936982 -48.07010427 18.74820463 -41.1015625 10.84765625 C-32.76511399 3.05488916 -24.586345 0.76893308 -13.41796875 0.83203125 C-8.81174018 1.05839448 -4.46311236 1.87162848 0 3 C0 2.01 0 1.02 0 0 Z " fill="#114F74" transform="translate(89,39)"/>
<path d="M0 0 C4.19174654 1.04793663 5.21592961 1.91763635 8 5 C8.33 4.34 8.66 3.68 9 3 C9 3.66 9 4.32 9 5 C9.73605469 5.07992187 10.47210938 5.15984375 11.23046875 5.2421875 C16.26212928 6.61897473 19.19923117 10.76803145 22 15 C22.375 18.75 22.375 18.75 22 22 C22.46287521 24.82632926 22.46287521 24.82632926 24 27 C27.02982306 28.37189827 27.02982306 28.37189827 30 29 C30.58570274 36.37985448 29.5456082 41.07288342 25 47 C19.81926783 52.71835532 14.2420473 53.90734658 6.7578125 54.87109375 C4 55 4 55 2 54 C3.375 52 3.375 52 5 50 C5.66 50 6.32 50 7 50 C7.2475 49.2575 7.495 48.515 7.75 47.75 C9 45 9 45 11 43.125 C13.61948553 40.34179663 14.1521299 37.67410375 15 34 C13.2984375 33.566875 13.2984375 33.566875 11.5625 33.125 C10.386875 32.75375 9.21125 32.3825 8 32 C7.67 31.34 7.34 30.68 7 30 C1.7506727 26.50044846 -2.93582051 26.6764173 -9 27 C-9 26.01 -9 25.02 -9 24 C-9.66 24 -10.32 24 -11 24 C-11 23.34 -11 22.68 -11 22 C-11.99 22.33 -12.98 22.66 -14 23 C-14.33 22.01 -14.66 21.02 -15 20 C-14.67 19.34 -14.34 18.68 -14 18 C-12.35 18 -10.7 18 -9 18 C-8.67 18.66 -8.34 19.32 -8 20 C-8.33 20.66 -8.66 21.32 -9 22 C-8.01 22.33 -7.02 22.66 -6 23 C-5.67 22.34 -5.34 21.68 -5 21 C-5.66 21 -6.32 21 -7 21 C-7 19.35 -7 17.7 -7 16 C-6.34 16 -5.68 16 -5 16 C-4.62875 15.071875 -4.62875 15.071875 -4.25 14.125 C-2.77753937 11.62181694 -1.58971163 11.16954719 1 10 C1.33 9.34 1.66 8.68 2 8 C2.66 8.33 3.32 8.66 4 9 C2.68 6.03 1.36 3.06 0 0 Z " fill="#03233C" transform="translate(67,44)"/>
<path d="M0 0 C4.87773605 0.45374289 7.52177888 1.52177888 11 5 C14.55462421 9.95108372 14.5033678 15.17666379 14.7890625 21.07421875 C14.88329717 24.06187448 14.88329717 24.06187448 16 27 C16.81617407 34.92090246 15.60483026 41.86927737 12 49 C11.01 49.495 11.01 49.495 10 50 C10.0721875 49.19175781 10.144375 48.38351563 10.21875 47.55078125 C10.35796875 45.94783203 10.35796875 45.94783203 10.5 44.3125 C10.5928125 43.25675781 10.685625 42.20101562 10.78125 41.11328125 C10.9723415 38.39363975 11.04043935 35.72460144 11 33 C9.9275 33.226875 8.855 33.45375 7.75 33.6875 C4 34 4 34 1.625 33.0625 C-0.39522974 30.49836225 -0.60757797 28.24762954 -0.82421875 25.03515625 C-1.35779358 18.85754538 -4.32417243 14.99335964 -9 11 C-12.689748 10.19777849 -12.689748 10.19777849 -16 10 C-17.4375 7.9375 -17.4375 7.9375 -18 6 C-18.99 6 -19.98 6 -21 6 C-21 6.99 -21 7.98 -21 9 C-21.33 8.34 -21.66 7.68 -22 7 C-22.51949219 7.26554687 -23.03898437 7.53109375 -23.57421875 7.8046875 C-29.64273027 10.8782035 -29.64273027 10.8782035 -32.75 11.9375 C-35.8501494 13.40145944 -37.1686881 15.12222416 -39 18 C-39.79690838 21.18762109 -39.79690838 21.18762109 -40 24 C-40.66 24 -41.32 24 -42 24 C-42.33 22.68 -42.66 21.36 -43 20 C-47.68957963 28.7929618 -46.53628554 37.65091827 -44 47 C-43.66503626 48.33292467 -43.33122655 49.66614174 -43 51 C-47.32254237 47.50079904 -48.79382573 42.53911489 -49.50390625 37.23828125 C-49.65847522 26.88216022 -48.23184016 18.93157186 -41.1015625 10.84765625 C-32.76511399 3.05488916 -24.586345 0.76893308 -13.41796875 0.83203125 C-8.81174018 1.05839448 -4.46311236 1.87162848 0 3 C0 2.01 0 1.02 0 0 Z " fill="#3985A7" transform="translate(89,39)"/>
<path d="M0 0 C0.66 0.33 1.32 0.66 2 1 C1.9278125 1.67804687 1.855625 2.35609375 1.78125 3.0546875 C1.14974743 9.38725495 0.65951377 15.63716361 1 22 C1.020625 22.68835938 1.04125 23.37671875 1.0625 24.0859375 C1.87354902 30.49829385 6.50632318 33.43833078 11.37109375 37.21484375 C13.93357894 39.12859904 13.93357894 39.12859904 17 40 C17 40.66 17 41.32 17 42 C18.98 42 20.96 42 23 42 C22.34 41.67 21.68 41.34 21 41 C21 37.04 21 33.08 21 29 C21.33 29 21.66 29 22 29 C22 30.98 22 32.96 22 35 C23.98 35 25.96 35 28 35 C27.01 36.65 26.02 38.3 25 40 C37.23448831 38.96366893 37.23448831 38.96366893 47 32 C50.66346701 26.65647169 51.70398249 21.3939782 52 15 C51.34 14.67 50.68 14.34 50 14 C51.65 14 53.3 14 55 14 C56.19737691 21.42373684 56.91909671 28.74050173 52.46875 35.234375 C46.09548588 42.18227769 38.57620483 46.04298028 29.12841797 46.64013672 C19.147356 46.86896277 10.9276137 43.79101806 3.4375 37.125 C-3.02150044 28.84423021 -3.87638422 18.22448257 -3 8 C-2.22802227 5.14547769 -1.2254135 2.70612148 0 0 Z " fill="#337995" transform="translate(45,58)"/>
<path d="M0 0 C0.33 0.66 0.66 1.32 1 2 C1.66 2 2.32 2 3 2 C3.33 2.99 3.66 3.98 4 5 C5.71521778 6.04818864 7.43467402 7.09411453 9.2109375 8.03515625 C11 9 11 9 14 11 C13.95875 12.0725 13.9175 13.145 13.875 14.25 C14.01932069 18.57962069 14.94804708 19.09347214 17.8203125 22.046875 C20.43546244 26.37659344 19.91945963 32.0650717 20 37 C21.485 37.495 21.485 37.495 23 38 C20.3333581 39.33332095 18.83319697 38.67102033 16 38 C16 37.34 16 36.68 16 36 C15.28199219 35.91878906 14.56398438 35.83757812 13.82421875 35.75390625 C8.40694016 34.30780007 4.64345546 30.10621993 1 26 C-0.44996079 23.30795811 -0.85866361 21.03590569 -1 18 C-1.04253906 17.19433594 -1.08507813 16.38867188 -1.12890625 15.55859375 C-1.24953958 10.29093819 -0.77121507 5.20570172 0 0 Z " fill="#031E35" transform="translate(46,62)"/>
<path d="M0 0 C4.87773605 0.45374289 7.52177888 1.52177888 11 5 C14.55462421 9.95108372 14.5033678 15.17666379 14.7890625 21.07421875 C14.88329717 24.06187448 14.88329717 24.06187448 16 27 C16.81617407 34.92090246 15.60483026 41.86927737 12 49 C11.01 49.495 11.01 49.495 10 50 C10.75 42.375 10.75 42.375 13 39 C13.57969813 34.13655857 13.59056454 29.52303487 11.8125 24.9375 C9.64995865 22.62581787 8.04780423 21.81770357 5 21 C3.68 21 2.36 21 1 21 C0.731875 20.071875 0.46375 19.14375 0.1875 18.1875 C-0.93710035 15.1688359 -1.70706573 14.0844857 -4 12 C-4 10 -4 10 -3 9 C-4.65 7.02 -6.3 5.04 -8 3 C-5.36 3 -2.72 3 0 3 C0 2.01 0 1.02 0 0 Z " fill="#5DC3E2" transform="translate(89,39)"/>
<path d="M0 0 C4.2880973 -0.19944639 7.09399612 0.28516903 11 2 C12.19625 2.2475 13.3925 2.495 14.625 2.75 C18 4 18 4 19.9375 7 C21 10 21 10 21 12 C21.99 12 22.98 12 24 12 C24.144375 13.11375 24.28875 14.2275 24.4375 15.375 C24.78372035 18.82142047 24.78372035 18.82142047 26 21 C26.12528003 23.76198762 26.18517882 26.48779681 26.1875 29.25 C26.19974609 30.00152344 26.21199219 30.75304687 26.22460938 31.52734375 C26.23653679 36.08361483 25.72850856 39.70947281 24 44 C23.01 44 22.02 44 21 44 C21.01160156 43.09636719 21.02320312 42.19273438 21.03515625 41.26171875 C21.04417969 40.08222656 21.05320312 38.90273437 21.0625 37.6875 C21.07410156 36.51574219 21.08570312 35.34398437 21.09765625 34.13671875 C21.14899898 30.96940805 21.14899898 30.96940805 20 28 C19.72889239 24.77683176 19.55520499 21.5538617 19.37890625 18.32421875 C18.99425722 14.94961744 18.2676826 12.1460736 17 9 C15.30287793 7.69140351 15.30287793 7.69140351 13 7 C11.74755627 6.46400795 10.4976898 5.92196704 9.25 5.375 C7.64125 4.694375 7.64125 4.694375 6 4 C6 4.99 6 5.98 6 7 C2.7 6.67 -0.6 6.34 -4 6 C-3.34 5.67 -2.68 5.34 -2 5 C-1.27840576 3.35636866 -0.60648579 1.68949614 0 0 Z " fill="#01172A" transform="translate(83,35)"/>
<path d="M0 0 C1.9375 0.0625 1.9375 0.0625 4 1 C5.25 4.0625 5.25 4.0625 6 7 C5.2575 7.226875 4.515 7.45375 3.75 7.6875 C0.48930737 9.24373966 -0.83515305 11.163304 -3 14 C-3.66 14 -4.32 14 -5 14 C-5 15.65 -5 17.3 -5 19 C-4.34 19 -3.68 19 -3 19 C-3.33 19.99 -3.66 20.98 -4 22 C-4.33 21.34 -4.66 20.68 -5 20 C-5.66 20 -6.32 20 -7 20 C-7 19.01 -7 18.02 -7 17 C-8.65 16.67 -10.3 16.34 -12 16 C-11.67 17.32 -11.34 18.64 -11 20 C-10.34 20 -9.68 20 -9 20 C-9 20.66 -9 21.32 -9 22 C-8.34 22 -7.68 22 -7 22 C-7.33 23.32 -7.66 24.64 -8 26 C-9.3410477 25.24266726 -10.67269781 24.46867264 -12 23.6875 C-12.7425 23.25824219 -13.485 22.82898438 -14.25 22.38671875 C-14.8275 21.92910156 -15.405 21.47148438 -16 21 C-16 20.01 -16 19.02 -16 18 C-16.66 17.67 -17.32 17.34 -18 17 C-17.34 17 -16.68 17 -16 17 C-16.12375 16.154375 -16.2475 15.30875 -16.375 14.4375 C-15.91958754 10.26288577 -14.72419535 8.57146649 -11.9296875 5.54296875 C-9.14022724 3.31252988 -6.27664909 2.41325051 -2.85546875 1.5078125 C-0.99936901 1.16449088 -0.99936901 1.16449088 0 0 Z " fill="#1D587E" transform="translate(65,46)"/>
<path d="M0 0 C2.4375 1.3125 2.4375 1.3125 3.25 3.4375 C3.311875 4.05625 3.37375 4.675 3.4375 5.3125 C4.035625 5.333125 4.63375 5.35375 5.25 5.375 C8.69533279 6.85157119 9.01128163 9.98465714 10.4375 13.3125 C12.29946946 14.23643164 12.29946946 14.23643164 14.4375 14.3125 C17.44774779 15.19354813 19.09675132 15.94825141 21.25 18.25 C23.02250414 22.8211949 23.03882102 27.46288505 22.4375 32.3125 C21.7775 32.9725 21.1175 33.6325 20.4375 34.3125 C20.1075 31.6725 19.7775 29.0325 19.4375 26.3125 C18.365 26.539375 17.2925 26.76625 16.1875 27 C12.4375 27.3125 12.4375 27.3125 10.0625 26.375 C8.04227026 23.81086225 7.82992203 21.56012954 7.61328125 18.34765625 C7.22895817 13.89804906 6.08972482 11.50872233 3.125 8.125 C2.53074219 7.43019531 1.93648438 6.73539063 1.32421875 6.01953125 C-0.68166104 4.20468763 -1.92106894 3.70317523 -4.5625 3.3125 C-4.5625 2.3225 -4.5625 1.3325 -4.5625 0.3125 C-2.5625 -0.6875 -2.5625 -0.6875 0 0 Z " fill="#3587B5" transform="translate(80.5625,45.6875)"/>
<path d="M0 0 C1.65 0 3.3 0 5 0 C6.1732164 6.7193303 6.34735889 11.89916847 3 18 C-1.65652486 23.87706773 -6.61814504 28.47522695 -14.26171875 29.390625 C-17.50804955 29.65735056 -20.74597709 29.85999011 -24 30 C-24.33 29.01 -24.66 28.02 -25 27 C-22.73930362 26.41589663 -20.48288088 25.8934072 -18.1953125 25.421875 C-10.96427279 23.83951008 -6.08742455 22.566191 -1.79296875 16.21484375 C0.9711336 11.30196926 1.74150229 6.58355053 2 1 C1.34 0.67 0.68 0.34 0 0 Z " fill="#245E7D" transform="translate(95,72)"/>
<path d="M0 0 C1.0409066 1.64142963 2.04504326 3.30712215 3 5 C3.66 5.33 4.32 5.66 5 6 C4.67 6.66 4.34 7.32 4 8 C3.34 7.67 2.68 7.34 2 7 C1.67 7.66 1.34 8.32 1 9 C0.67 8.01 0.34 7.02 0 6 C-2.50447516 4.78130071 -2.50447516 4.78130071 -5 4 C-5.99 4.99 -6.98 5.98 -8 7 C-9.32 6.34 -10.64 5.68 -12 5 C-12 4.34 -12 3.68 -12 3 C-12.99 3 -13.98 3 -15 3 C-15 3.99 -15 4.98 -15 6 C-15.33 5.34 -15.66 4.68 -16 4 C-16.99 3.67 -17.98 3.34 -19 3 C-18.67 2.34 -18.34 1.68 -18 1 C-18.99 1 -19.98 1 -21 1 C-21 1.99 -21 2.98 -21 4 C-21.66 4 -22.32 4 -23 4 C-23.33 2.68 -23.66 1.36 -24 0 C-16.98200699 -2.61134623 -6.54954967 -4.39134566 0 0 Z " fill="#52ADC7" transform="translate(83,42)"/>
<path d="M0 0 C0.66 0.33 1.32 0.66 2 1 C1.9278125 1.67804687 1.855625 2.35609375 1.78125 3.0546875 C1.14974743 9.38725495 0.65951377 15.63716361 1 22 C1.020625 22.68835938 1.04125 23.37671875 1.0625 24.0859375 C1.87354902 30.49829385 6.50632318 33.43833078 11.37109375 37.21484375 C13.93357894 39.12859904 13.93357894 39.12859904 17 40 C17 40.66 17 41.32 17 42 C11.34119526 41.85852988 8.56059372 39.29873481 4.5390625 35.69140625 C3 34 3 34 3 32 C2.34 32 1.68 32 1 32 C-3.34175675 24.26034667 -4.6741478 14.19045348 -2.328125 5.515625 C-1.62596641 3.64761819 -0.82320594 1.81791312 0 0 Z " fill="#1E5476" transform="translate(45,58)"/>
<path d="M0 0 C4.87773605 0.45374289 7.52177888 1.52177888 11 5 C14.56806924 10.16754855 14.3221077 14.96346301 14 21 C13.53980469 20.38382813 13.07960938 19.76765625 12.60546875 19.1328125 C11.52642579 17.69933937 10.42828533 16.280063 9.3125 14.875 C8 13 8 13 8 11 C7.195625 10.62875 7.195625 10.62875 6.375 10.25 C3.43351717 8.70185114 0.74640157 6.86989043 -2 5 C-2.99 4.34 -3.98 3.68 -5 3 C-3.35 3 -1.7 3 0 3 C0 2.01 0 1.02 0 0 Z " fill="#2B719B" transform="translate(89,39)"/>
<path d="M0 0 C1.36125 0.37125 1.36125 0.37125 2.75 0.75 C2.20276317 4.12462715 1.6951 5.83235 -0.25 8.75 C-0.91 8.75 -1.57 8.75 -2.25 8.75 C-2.25 10.4 -2.25 12.05 -2.25 13.75 C-1.59 13.75 -0.93 13.75 -0.25 13.75 C-0.58 14.74 -0.91 15.73 -1.25 16.75 C-1.58 16.09 -1.91 15.43 -2.25 14.75 C-2.91 14.75 -3.57 14.75 -4.25 14.75 C-4.25 13.76 -4.25 12.77 -4.25 11.75 C-7.16634129 11.4997843 -7.16634129 11.4997843 -10.25 11.75 C-10.91 12.74 -11.57 13.73 -12.25 14.75 C-12.5625 12.0625 -12.5625 12.0625 -12.25 8.75 C-10 6.125 -10 6.125 -7.25 3.75 C-6.2909375 2.574375 -6.2909375 2.574375 -5.3125 1.375 C-3.25 -0.25 -3.25 -0.25 0 0 Z " fill="#1A577D" transform="translate(62.25,51.25)"/>
<path d="M0 0 C0.33 0.66 0.66 1.32 1 2 C1.66 2 2.32 2 3 2 C2.84015625 2.56460938 2.6803125 3.12921875 2.515625 3.7109375 C0.82485066 11.21695088 1.81648125 19.03229858 5 26 C7.68603092 30.04996562 10.36284205 32.07814333 15.125 33.0625 C19.52792267 34.12772323 20.63174031 35.25025549 23 39 C19.535 38.505 19.535 38.505 16 38 C16 37.34 16 36.68 16 36 C15.28199219 35.91878906 14.56398438 35.83757812 13.82421875 35.75390625 C8.40694016 34.30780007 4.64345546 30.10621993 1 26 C-0.44996079 23.30795811 -0.85866361 21.03590569 -1 18 C-1.04253906 17.19433594 -1.08507813 16.38867188 -1.12890625 15.55859375 C-1.24953958 10.29093819 -0.77121507 5.20570172 0 0 Z " fill="#12405F" transform="translate(46,62)"/>
<path d="M0 0 C5.60514063 -0.57488622 10.33211172 0.93056926 15 4 C16.0625 6.75 16.0625 6.75 16 9 C14.27473958 7.99088542 12.54947917 6.98177083 10.82421875 5.97265625 C8.86180445 4.86098753 8.86180445 4.86098753 6 4 C6 4.99 6 5.98 6 7 C2.7 6.67 -0.6 6.34 -4 6 C-3.34 5.67 -2.68 5.34 -2 5 C-1.27840576 3.35636866 -0.60648579 1.68949614 0 0 Z " fill="#0B3B5C" transform="translate(83,35)"/>
<path d="M0 0 C1.43793392 0.31049726 2.8753318 0.6234776 4.3125 0.9375 C5.11300781 1.11152344 5.91351563 1.28554688 6.73828125 1.46484375 C10.40442839 2.33230862 12.56169616 3.11836819 15 6 C17.62877312 13.88631937 15.96194846 21.32171995 13.0703125 28.8828125 C12 31 12 31 10 32 C10.75 24.375 10.75 24.375 13 21 C13.57969813 16.13655857 13.59056454 11.52303487 11.8125 6.9375 C9.64995865 4.62581787 8.04780423 3.81770357 5 3 C3.68 3 2.36 3 1 3 C0.67 2.01 0.34 1.02 0 0 Z " fill="#50ABC9" transform="translate(89,57)"/>
<path d="M0 0 C1.32 0 2.64 0 4 0 C2.99468627 16.90568402 2.99468627 16.90568402 -3.0859375 22.5859375 C-8.97783164 26.9387246 -14.90418437 27.58595844 -22 28 C-21.67 27.34 -21.34 26.68 -21 26 C-19.12115607 25.49449456 -17.22019524 25.06997764 -15.3125 24.6875 C-9.01971651 23.17962068 -5.51403431 21.71816725 -1.79296875 16.21484375 C0.9711336 11.30196926 1.74150229 6.58355053 2 1 C1.34 0.67 0.68 0.34 0 0 Z " fill="#103E5C" transform="translate(95,72)"/>
<path d="M0 0 C5.91607822 0.99915988 10.27881601 2.22305281 15 6 C15.33 6.66 15.66 7.32 16 8 C10.25 7.125 10.25 7.125 8 6 C6.00039988 5.960008 3.99952758 5.95653201 2 6 C1.34 7.32 0.68 8.64 0 10 C-1.32 9.67 -2.64 9.34 -4 9 C-3.01 8.34 -2.02 7.68 -1 7 C-1 6.01 -1 5.02 -1 4 C-1.99 3.34 -2.98 2.68 -4 2 C-2.68 2 -1.36 2 0 2 C0 1.34 0 0.68 0 0 Z " fill="#04233B" transform="translate(81,30)"/>
<path d="M0 0 C3.64263024 0.59690159 3.90918993 0.8738749 6.25 4.125 C9.14209174 10.29328942 8.31149418 17.35479089 8 24 C7.34 24.33 6.68 24.66 6 25 C5.98582031 24.20078125 5.97164063 23.4015625 5.95703125 22.578125 C5.59028311 14.13300565 3.70058892 7.57869687 0 0 Z " fill="#092F4A" transform="translate(97,38)"/>
<path d="M0 0 C1.86236066 1.68499298 3.07225199 3.13118865 4.29296875 5.34765625 C6.20831741 8.32367854 8.21618024 10.0792834 11 12.25 C11.86625 12.93578125 12.7325 13.6215625 13.625 14.328125 C15.97173959 16.15030428 15.97173959 16.15030428 19 17 C19 17.66 19 18.32 19 19 C13.34119526 18.85852988 10.56059372 16.29873481 6.5390625 12.69140625 C5 11 5 11 5 9 C4.34 9 3.68 9 3 9 C0 3.375 0 3.375 0 0 Z " fill="#296789" transform="translate(43,81)"/>
<path d="M0 0 C2.4375 1.3125 2.4375 1.3125 3.25 3.4375 C3.311875 4.05625 3.37375 4.675 3.4375 5.3125 C4.05625 5.35375 4.675 5.395 5.3125 5.4375 C7.4375 6.3125 7.4375 6.3125 8.75 9.1875 C9.4375 12.3125 9.4375 12.3125 8.4375 15.3125 C7.83421875 14.53003906 7.2309375 13.74757813 6.609375 12.94140625 C5.81015625 11.92949219 5.0109375 10.91757812 4.1875 9.875 C3.39859375 8.86566406 2.6096875 7.85632813 1.796875 6.81640625 C-0.46905283 4.41167158 -1.34827367 3.60001107 -4.5625 3.3125 C-4.5625 2.3225 -4.5625 1.3325 -4.5625 0.3125 C-2.5625 -0.6875 -2.5625 -0.6875 0 0 Z " fill="#206892" transform="translate(80.5625,45.6875)"/>
<path d="M0 0 C0 3.70103827 -1.3608576 5.72171521 -3 9 C-3 9.99 -3 10.98 -3 12 C-2.34 11.67 -1.68 11.34 -1 11 C-0.67 12.32 -0.34 13.64 0 15 C0.66 15 1.32 15 2 15 C2 15.66 2 16.32 2 17 C2.66 17 3.32 17 4 17 C3.67 18.32 3.34 19.64 3 21 C1.6589523 20.24266726 0.32730219 19.46867264 -1 18.6875 C-1.7425 18.25824219 -2.485 17.82898438 -3.25 17.38671875 C-3.8275 16.92910156 -4.405 16.47148438 -5 16 C-5 15.01 -5 14.02 -5 13 C-5.66 12.67 -6.32 12.34 -7 12 C-6.34 12 -5.68 12 -5 12 C-5.103125 11.13375 -5.20625 10.2675 -5.3125 9.375 C-4.88541057 4.76243413 -3.14957658 3.30705541 0 0 Z " fill="#26678A" transform="translate(54,51)"/>
<path d="M0 0 C0.66 0 1.32 0 2 0 C3.18779635 1.44461719 4.37267406 2.8934651 5.48828125 4.39453125 C9.86927601 9.04721561 15.30282951 9.96849028 21.3125 11.1875 C22.14845703 11.36474609 22.98441406 11.54199219 23.84570312 11.72460938 C25.89541123 12.15797623 27.94748682 12.58011932 30 13 C30 13.33 30 13.66 30 14 C19.75207128 14.98118466 12.02569259 12.80701319 3.9140625 6.3359375 C2.25 4.75 2.25 4.75 0 2 C0 1.34 0 0.68 0 0 Z " fill="#3A839B" transform="translate(46,90)"/>
<path d="M0 0 C0.33 0.66 0.66 1.32 1 2 C2.13501953 2.17402344 2.13501953 2.17402344 3.29296875 2.3515625 C6.8011897 3.19191557 7.98313637 4.66398922 10.3125 7.375 C11.00988281 8.16648437 11.70726563 8.95796875 12.42578125 9.7734375 C14 12 14 12 14 15 C11.24542282 14.62005832 10.17979426 14.1926367 8.25 12.125 C7 10 7 10 7 7 C6.34 7 5.68 7 5 7 C5 6.34 5 5.68 5 5 C2.03 4.505 2.03 4.505 -1 4 C-0.67 2.68 -0.34 1.36 0 0 Z " fill="#0A4267" transform="translate(75,47)"/>
<path d="M0 0 C-2.77723925 0.78688445 -5.22610077 1.11949924 -8.109375 1.09765625 C-8.86347656 1.09443359 -9.61757812 1.09121094 -10.39453125 1.08789062 C-11.17183594 1.07951172 -11.94914062 1.07113281 -12.75 1.0625 C-13.54277344 1.05798828 -14.33554688 1.05347656 -15.15234375 1.04882812 C-17.10159508 1.03708565 -19.05080738 1.01915146 -21 1 C-21 1.99 -21 2.98 -21 4 C-21.66 4 -22.32 4 -23 4 C-23.33 2.68 -23.66 1.36 -24 0 C-16.78610411 -2.68424033 -6.82879594 -4.18699897 0 0 Z " fill="#4EADC5" transform="translate(83,42)"/>
<path d="M0 0 C4.43909781 1.39514503 6.98024981 3.47695811 10 7 C10.8125 9.3125 10.8125 9.3125 11 11 C9.35 10.67 7.7 10.34 6 10 C6 9.34 6 8.68 6 8 C5.01 7.67 4.02 7.34 3 7 C1.3125 3.4375 1.3125 3.4375 0 0 Z " fill="#A4F4F9" transform="translate(88,45)"/>
<path d="M0 0 C0 0.66 0 1.32 0 2 C-1.0828125 2.61875 -1.0828125 2.61875 -2.1875 3.25 C-5.66229071 5.41209199 -7.49655171 7.78128078 -10 11 C-10.66 10.01 -11.32 9.02 -12 8 C-10.67667681 4.03003043 -7.9910601 2.23963605 -4.75390625 -0.14453125 C-3 -1 -3 -1 0 0 Z " fill="#4DA8C9" transform="translate(59,45)"/>
<path d="M0 0 C0.33 0.66 0.66 1.32 1 2 C1.66 2 2.32 2 3 2 C2.75636719 2.83724609 2.75636719 2.83724609 2.5078125 3.69140625 C1.28620921 9.24500276 1.53784843 15.51693163 3 21 C2.34 20.67 1.68 20.34 1 20 C1 19.34 1 18.68 1 18 C0.34 18 -0.32 18 -1 18 C-1.11269443 11.8894576 -0.89604368 6.04829486 0 0 Z " fill="#0B334F" transform="translate(46,62)"/>
<path d="M0 0 C2.97272716 2.66520366 2.56178962 5.73898912 2.8125 9.625 C2.1525 9.295 1.4925 8.965 0.8125 8.625 C0.8125 7.965 0.8125 7.305 0.8125 6.625 C0.214375 6.356875 -0.38375 6.08875 -1 5.8125 C-3.15974808 4.64006533 -4.54540256 3.43130718 -6.1875 1.625 C-3.8870667 0.14615002 -2.73895857 -0.46953575 0 0 Z " fill="#57B5E5" transform="translate(96.1875,43.375)"/>
<path d="M0 0 C9.85828397 0.21056529 9.85828397 0.21056529 13.125 3.5625 C13.74375 4.366875 14.3625 5.17125 15 6 C14.67 6.66 14.34 7.32 14 8 C13.34 7.67 12.68 7.34 12 7 C11.67 7.66 11.34 8.32 11 9 C10.67 8.01 10.34 7.02 10 6 C8.06669397 4.90833725 8.06669397 4.90833725 6 4 C5.34 3.34 4.68 2.68 4 2 C2.68252676 1.30251417 1.35085807 0.63040043 0 0 Z " fill="#3D92BB" transform="translate(73,42)"/>
<path d="M0 0 C9.01746725 0.76419214 9.01746725 0.76419214 13 4 C13 4.99 13 5.98 13 7 C12.62875 6.54625 12.2575 6.0925 11.875 5.625 C9.45735315 3.52970606 7.04569398 2.87986715 4 2 C4 2.99 4 3.98 4 5 C2.02 5 0.04 5 -2 5 C-1.34 3.35 -0.68 1.7 0 0 Z " fill="#16547F" transform="translate(85,37)"/>
<path d="M0 0 C0.33 0 0.66 0 1 0 C1.3155715 7.66721877 1.47698725 14.04602549 -2 21 C-2.66 21.33 -3.32 21.66 -4 22 C-3.25 14.375 -3.25 14.375 -1 11 C-0.54227937 8.26127045 -0.54227937 8.26127045 -0.375 5.3125 C-0.30023438 4.31863281 -0.22546875 3.32476562 -0.1484375 2.30078125 C-0.09945312 1.54152344 -0.05046875 0.78226562 0 0 Z " fill="#61C6DA" transform="translate(103,67)"/>
<path d="M0 0 C0.66 0 1.32 0 2 0 C2 5.94 2 11.88 2 18 C1.01 18.33 0.02 18.66 -1 19 C-0.67 12.73 -0.34 6.46 0 0 Z " fill="#021F36" transform="translate(105,47)"/>
<path d="M0 0 C0.66 0 1.32 0 2 0 C2 0.66 2 1.32 2 2 C2.66 1.67 3.32 1.34 4 1 C6.6723621 0.86584528 9.32250488 0.95681459 12 1 C11.67 1.66 11.34 2.32 11 3 C8.49609375 3.4140625 8.49609375 3.4140625 5.4375 3.625 C4.42558594 3.69976562 3.41367188 3.77453125 2.37109375 3.8515625 C1.58863281 3.90054688 0.80617188 3.94953125 0 4 C-0.33 3.01 -0.66 2.02 -1 1 C-0.67 0.67 -0.34 0.34 0 0 Z " fill="#1A4F6C" transform="translate(71,98)"/>
<path d="M0 0 C5.75 0.75 5.75 0.75 8 3 C8.71408334 4.98356483 9.38617742 6.98315437 10 9 C9.34 9 8.68 9 8 9 C6.5625 7.5390625 6.5625 7.5390625 5 5.625 C3.38135964 3.65835196 1.80325804 1.80325804 0 0 Z " fill="#87E8F2" transform="translate(81,42)"/>
<path d="M0 0 C0.33 0 0.66 0 1 0 C1.19658808 1.41543415 1.38187546 2.83244031 1.5625 4.25 C1.66691406 5.03890625 1.77132812 5.8278125 1.87890625 6.640625 C2.00027349 9.00532874 1.69633257 10.7511037 1 13 C0.01 13 -0.98 13 -2 13 C-1.34 8.71 -0.68 4.42 0 0 Z " fill="#19506F" transform="translate(99,72)"/>
<path d="M0 0 C0 3 0 3 -1.4375 5.8125 C-2.98483976 8.9690731 -3.58720213 11.53249793 -4 15 C-4.33 14.34 -4.66 13.68 -5 13 C-5.66 12.67 -6.32 12.34 -7 12 C-6.34 12 -5.68 12 -5 12 C-5.103125 11.13375 -5.20625 10.2675 -5.3125 9.375 C-4.88541057 4.76243413 -3.14957658 3.30705541 0 0 Z " fill="#286C96" transform="translate(54,51)"/>
<path d="M0 0 C0.44730469 0.40992187 0.89460938 0.81984375 1.35546875 1.2421875 C4.73744485 4.25640074 7.579668 6.66050545 12 8 C12 8.66 12 9.32 12 10 C8.80961017 9.92403834 6.68285912 9.61211245 4.265625 7.4453125 C0 2.55 0 2.55 0 0 Z " fill="#205777" transform="translate(50,90)"/>
<path d="M0 0 C3.35741626 0.59953862 5.53389454 1.61893266 8 4 C8.75 6.6875 8.75 6.6875 9 9 C7.29159719 7.36587557 6.06546953 6.13093906 5 4 C2.69 4 0.38 4 -2 4 C-1.34 2.68 -0.68 1.36 0 0 Z " fill="#3993C6" transform="translate(91,59)"/>
<path d="M0 0 C1.65 0 3.3 0 5 0 C5.33 0.66 5.66 1.32 6 2 C4.75 3.5625 4.75 3.5625 3 5 C0.8125 4.6875 0.8125 4.6875 -1 4 C-0.67 2.68 -0.34 1.36 0 0 Z " fill="#07273F" transform="translate(53,62)"/>
<path d="M0 0 C0.99 0.33 1.98 0.66 3 1 C4.1875 4.0625 4.1875 4.0625 5 7 C3.02 7.66 1.04 8.32 -1 9 C-0.34 7.68 0.32 6.36 1 5 C0.34 4.01 -0.32 3.02 -1 2 C-0.67 1.34 -0.34 0.68 0 0 Z " fill="#317798" transform="translate(66,46)"/>
<path d="M0 0 C3.14958831 3.42346555 3.56179109 6.44262737 4 11 C2 8 2 8 2 6 C0.35 5.67 -1.3 5.34 -3 5 C-2.01 4.67 -1.02 4.34 0 4 C0 2.68 0 1.36 0 0 Z " fill="#7DDDEA" transform="translate(99,54)"/>
<path d="M0 0 C3.65316671 1.24976756 4.78065836 1.67098753 7 5 C6.67 5.99 6.34 6.98 6 8 C3.33264727 5.51047079 1.44253657 3.36591866 0 0 Z " fill="#D8FBFC" transform="translate(92,48)"/>
<path d="M0 0 C1.65 0 3.3 0 5 0 C4.67 1.65 4.34 3.3 4 5 C2.68 4.34 1.36 3.68 0 3 C0 2.01 0 1.02 0 0 Z " fill="#479DC5" transform="translate(71,44)"/>
<path d="M0 0 C1.32 0 2.64 0 4 0 C4 0.66 4 1.32 4 2 C6.475 2.99 6.475 2.99 9 4 C7.02 4.99 7.02 4.99 5 6 C5 5.01 5 4.02 5 3 C3.35 2.67 1.7 2.34 0 2 C0 1.34 0 0.68 0 0 Z " fill="#6DD4E8" transform="translate(85,49)"/>
<path d="M0 0 C1.875 0.25 1.875 0.25 4 1 C5.3125 2.9375 5.3125 2.9375 6 5 C5.67 5.66 5.34 6.32 5 7 C4.01 6.67 3.02 6.34 2 6 C0.8125 2.9375 0.8125 2.9375 0 0 Z " fill="#0C3552" transform="translate(67,44)"/>
<path d="M0 0 C0.66 0.33 1.32 0.66 2 1 C1.67 1.66 1.34 2.32 1 3 C2.32 3.33 3.64 3.66 5 4 C4.67 4.99 4.34 5.98 4 7 C3.34 6.34 2.68 5.68 2 5 C-0.06874034 4.3574765 -0.06874034 4.3574765 -2 4 C-2 3.01 -2 2.02 -2 1 C-1.34 0.67 -0.68 0.34 0 0 Z " fill="#15547D" transform="translate(78,45)"/>
<path d="M0 0 C0.226875 0.61875 0.45375 1.2375 0.6875 1.875 C2.37929835 4.61410209 3.99244161 5.05024472 7 6 C7 6.66 7 7.32 7 8 C4.24542282 7.62005832 3.17979426 7.1926367 1.25 5.125 C0 3 0 3 0 0 Z " fill="#073C5F" transform="translate(82,54)"/>
<path d="M0 0 C1.32 0.33 2.64 0.66 4 1 C3.01 2.485 3.01 2.485 2 4 C-0.97 3.505 -0.97 3.505 -4 3 C-2.68 2.67 -1.36 2.34 0 2 C0 1.34 0 0.68 0 0 Z " fill="#3694CF" transform="translate(91,41)"/>
</svg>
